<svg width="16" height="16" viewBox="0 0 16 16" fill="none" xmlns="http://www.w3.org/2000/svg">
<g clip-path="url(#clip0_625_1116)">
<path d="M8.24256 12L7.62131 12.6213C7.05715 13.1763 6.29653 13.4859 5.50512 13.4827C4.71371 13.4795 3.95563 13.1637 3.39601 12.604C2.8364 12.0444 2.52058 11.2864 2.51736 10.4949C2.51414 9.70353 2.82377 8.94291 3.37881 8.37875L4.88568 6.875C5.42619 6.3334 6.15323 6.01879 6.91805 5.99556C7.68287 5.97232 8.42767 6.24221 9.00006 6.75" stroke="#64748B" style="stroke:#64748B;stroke:color(display-p3 0.3922 0.4549 0.5451);stroke-opacity:1;" stroke-linecap="round" stroke-linejoin="round"/>
<path d="M7.7575 4L8.37875 3.37875C8.94291 2.82371 9.70353 2.51408 10.4949 2.5173C11.2864 2.52052 12.0444 2.83634 12.604 3.39595C13.1637 3.95557 13.4795 4.71365 13.4827 5.50506C13.4859 6.29647 13.1763 7.05709 12.6213 7.62125L11.1144 9.12812C10.5735 9.66929 9.8462 9.98333 9.08139 10.006C8.31657 10.0286 7.572 9.7582 7 9.25" stroke="#64748B" style="stroke:#64748B;stroke:color(display-p3 0.3922 0.4549 0.5451);stroke-opacity:1;" stroke-linecap="round" stroke-linejoin="round"/>
</g>
<defs>
<clipPath id="clip0_625_1116">
<rect width="16" height="16" fill="currentColor"/>
</clipPath>
</defs>
</svg>
