<svg width="12" height="12" viewBox="0 0 12 12" fill="none" xmlns="http://www.w3.org/2000/svg">
<g clip-path="url(#clip0_625_1104)">
<path d="M10.9842 3.25875C10.9401 3.08595 10.8554 2.92612 10.7373 2.79245C10.6192 2.65879 10.471 2.55512 10.305 2.49C8.69812 1.86938 6.14062 1.875 6 1.875C5.85938 1.875 3.30187 1.86938 1.695 2.49C1.52895 2.55512 1.38077 2.65879 1.26267 2.79245C1.14457 2.92612 1.05995 3.08595 1.01578 3.25875C0.894375 3.72656 0.75 4.58156 0.75 6C0.75 7.41844 0.894375 8.27344 1.01578 8.74125C1.05988 8.91414 1.14448 9.07407 1.26258 9.20782C1.38068 9.34156 1.5289 9.4453 1.695 9.51047C3.23438 10.1044 5.64375 10.125 5.96906 10.125H6.03094C6.35625 10.125 8.76703 10.1044 10.305 9.51047C10.4711 9.4453 10.6193 9.34156 10.7374 9.20782C10.8555 9.07407 10.9401 8.91414 10.9842 8.74125C11.1056 8.2725 11.25 7.41844 11.25 6C11.25 4.58156 11.1056 3.72656 10.9842 3.25875ZM7.60406 6.1561L5.35406 7.6561C5.32582 7.67494 5.29299 7.68576 5.25907 7.6874C5.22516 7.68905 5.19144 7.68145 5.1615 7.66543C5.13157 7.6494 5.10655 7.62555 5.08911 7.59641C5.07168 7.56728 5.06248 7.53396 5.0625 7.5V4.5C5.06248 4.46605 5.07168 4.43273 5.08911 4.40359C5.10655 4.37446 5.13157 4.3506 5.1615 4.33458C5.19144 4.31855 5.22516 4.31096 5.25907 4.3126C5.29299 4.31424 5.32582 4.32506 5.35406 4.34391L7.60406 5.84391C7.62978 5.86102 7.65087 5.88423 7.66546 5.91146C7.68005 5.93869 7.68768 5.96911 7.68768 6C7.68768 6.0309 7.68005 6.06131 7.66546 6.08854C7.65087 6.11577 7.62978 6.13898 7.60406 6.1561Z" fill="#F8FAFC" style="fill:#F8FAFC;fill:color(display-p3 0.9725 0.9804 0.9882);fill-opacity:1;"/>
</g>
<defs>
<clipPath id="clip0_625_1104">
<rect width="12" height="12" fill="white" style="fill:white;fill:white;fill-opacity:1;"/>
</clipPath>
</defs>
</svg>
