<svg width="113" height="32" viewBox="0 0 113 32" fill="none" xmlns="http://www.w3.org/2000/svg">
<path d="M42.3922 22.4094V10.6898H38.3875V8.66781H48.9292V10.6898H44.9049V22.4094H42.3922ZM53.6991 22.645C52.7175 22.645 51.8472 22.4356 51.0882 22.0168C50.3291 21.598 49.7336 21.0091 49.3018 20.25C48.8699 19.491 48.6539 18.6141 48.6539 17.6195C48.6539 16.6118 48.8633 15.7153 49.2821 14.9301C49.714 14.1448 50.3029 13.5363 51.0489 13.1044C51.808 12.6594 52.6979 12.4369 53.7187 12.4369C54.6741 12.4369 55.5182 12.6463 56.2511 13.0651C56.984 13.4839 57.5533 14.0598 57.959 14.7926C58.3778 15.5124 58.5872 16.3173 58.5872 17.2072C58.5872 17.3512 58.5806 17.5017 58.5675 17.6588C58.5675 17.8158 58.561 17.9794 58.5479 18.1495H51.1471C51.1994 18.9086 51.4612 19.5041 51.9323 19.9359C52.4165 20.3678 52.9989 20.5838 53.6794 20.5838C54.1899 20.5838 54.6152 20.4725 54.9555 20.25C55.3088 20.0145 55.5706 19.7135 55.7407 19.347H58.2927C58.1095 19.9621 57.8019 20.5249 57.3701 21.0353C56.9513 21.5326 56.4278 21.9252 55.7996 22.2131C55.1845 22.501 54.4843 22.645 53.6991 22.645ZM53.7187 14.4785C53.1036 14.4785 52.5605 14.6552 52.0893 15.0086C51.6182 15.3489 51.3172 15.8723 51.1863 16.5791H56.0352C55.9959 15.9378 55.7603 15.4274 55.3284 15.0478C54.8966 14.6683 54.36 14.4785 53.7187 14.4785ZM65.4709 22.645C64.4762 22.645 63.5994 22.4291 62.8403 21.9972C62.0813 21.5653 61.4792 20.9633 61.0343 20.1911C60.6024 19.419 60.3865 18.5356 60.3865 17.541C60.3865 16.5463 60.6024 15.6629 61.0343 14.8908C61.4792 14.1186 62.0813 13.5166 62.8403 13.0848C63.5994 12.6529 64.4762 12.4369 65.4709 12.4369C66.7141 12.4369 67.7611 12.7641 68.6118 13.4185C69.4625 14.0598 70.0056 14.9497 70.2412 16.0883H67.591C67.4601 15.6171 67.1984 15.2507 66.8058 14.989C66.4262 14.7141 65.9747 14.5767 65.4512 14.5767C64.7576 14.5767 64.1687 14.8384 63.6844 15.3619C63.2002 15.8854 62.9581 16.6118 62.9581 17.541C62.9581 18.4702 63.2002 19.1965 63.6844 19.72C64.1687 20.2435 64.7576 20.5052 65.4512 20.5052C65.9747 20.5052 66.4262 20.3744 66.8058 20.1126C67.1984 19.8509 67.4601 19.4779 67.591 18.9937H70.2412C70.0056 20.093 69.4625 20.9764 68.6118 21.6438C67.7611 22.3113 66.7141 22.645 65.4709 22.645ZM72.4714 22.4094V8.27519H74.9842V14.1645C75.3113 13.6279 75.7498 13.2091 76.2994 12.9081C76.8622 12.594 77.5035 12.4369 78.2233 12.4369C79.4273 12.4369 80.3565 12.8165 81.0108 13.5755C81.6783 14.3346 82.012 15.447 82.012 16.9128V22.4094H79.5189V17.1483C79.5189 16.3108 79.3488 15.6695 79.0085 15.2245C78.6813 14.7796 78.1578 14.5571 77.438 14.5571C76.7313 14.5571 76.1424 14.8057 75.6712 15.303C75.2132 15.8004 74.9842 16.494 74.9842 17.3839V22.4094H72.4714ZM84.4148 22.4094V8.27519H86.9276V22.4094H84.4148ZM90.8496 11.1609C90.3915 11.1609 90.012 11.0235 89.711 10.7487C89.4231 10.4739 89.2791 10.127 89.2791 9.70825C89.2791 9.28945 89.4231 8.94919 89.711 8.68744C90.012 8.41261 90.3915 8.27519 90.8496 8.27519C91.3076 8.27519 91.6806 8.41261 91.9686 8.68744C92.2696 8.94919 92.4201 9.28945 92.4201 9.70825C92.4201 10.127 92.2696 10.4739 91.9686 10.7487C91.6806 11.0235 91.3076 11.1609 90.8496 11.1609ZM89.5932 22.4094V12.6725H92.106V22.4094H89.5932ZM95.1802 22.4094V14.773H93.8453V12.6725H95.1802V11.5339C95.1802 10.3561 95.4747 9.51848 96.0636 9.02117C96.6656 8.52385 97.477 8.27519 98.4978 8.27519H99.5775V10.415H98.8904C98.4586 10.415 98.151 10.5 97.9678 10.6702C97.7846 10.8403 97.6929 11.1282 97.6929 11.5339V12.6725H99.7935V14.773H97.6929V22.4094H95.1802ZM103.001 26.7282L105.258 21.7616H104.669L100.881 12.6725H103.609L106.338 19.5237L109.184 12.6725H111.854L105.67 26.7282H103.001Z" fill="#3B82F6" style="fill:#3B82F6;fill:color(display-p3 0.2314 0.5098 0.9647);fill-opacity:1;"/>
<path d="M16.8218 4.55331C16.8218 3.01724 18.6898 2.26018 19.7592 3.36286L29.613 13.5233C30.2619 14.1924 30.6249 15.0879 30.6249 16.0201V27.7807C30.6249 29.3167 28.7568 30.0738 27.6874 28.9711L17.8337 18.8107C17.1847 18.1416 16.8218 17.246 16.8218 16.3139V4.55331Z" fill="#60A5FA" style="fill:#60A5FA;fill:color(display-p3 0.3765 0.6471 0.9804);fill-opacity:1;"/>
<path d="M8.26758 4.21932C8.26758 2.68326 10.1356 1.92619 11.205 3.02887L20.9134 13.0393C21.6556 13.8046 22.0707 14.8289 22.0707 15.895V27.4467C22.0707 28.9828 20.2026 29.7398 19.1332 28.6371L9.27946 18.4767C8.6305 17.8076 8.26758 16.9121 8.26758 15.9799V4.21932Z" fill="#2563EB" style="fill:#2563EB;fill:color(display-p3 0.1451 0.3882 0.9216);fill-opacity:1;"/>
<path d="M0 4.55331C0 3.01724 1.86806 2.26018 2.93745 3.36286L12.7912 13.5233C13.4401 14.1924 13.8031 15.0879 13.8031 16.0201V27.7807C13.8031 29.3167 11.935 30.0738 10.8656 28.9711L1.01188 18.8107C0.362926 18.1416 0 17.246 0 16.3139V4.55331Z" fill="#1E40AF" style="fill:#1E40AF;fill:color(display-p3 0.1176 0.2510 0.6863);fill-opacity:1;"/>
</svg>
