<svg width="24" height="24" viewBox="0 0 24 24" fill="none" xmlns="http://www.w3.org/2000/svg">
<path opacity="0.2" d="M20.9709 3.95436L15.5128 21.9544C15.4711 22.101 15.3857 22.2315 15.268 22.3284C15.1503 22.4253 15.0059 22.4841 14.8539 22.4968C14.702 22.5095 14.5498 22.4756 14.4176 22.3997C14.2854 22.3237 14.1795 22.2092 14.114 22.0715L10.3125 14.0447C10.2383 13.8884 10.1125 13.7625 9.95621 13.6884L1.92933 9.88592C1.79164 9.82044 1.67718 9.71454 1.60121 9.58235C1.52523 9.45016 1.49135 9.29795 1.50408 9.14601C1.51681 8.99408 1.57555 8.84963 1.67246 8.73192C1.76937 8.61421 1.89985 8.52884 2.04652 8.48717L20.0465 3.02905C20.1748 2.99311 20.3102 2.99196 20.4391 3.02572C20.5679 3.05949 20.6854 3.12694 20.7795 3.22116C20.8736 3.31538 20.941 3.43296 20.9746 3.56182C21.0083 3.69067 21.007 3.82617 20.9709 3.95436Z" fill="#F8FAFC" style="fill:#F8FAFC;fill:color(display-p3 0.9725 0.9804 0.9882);fill-opacity:1;"/>
<path d="M21.3113 2.68876C21.1226 2.50025 20.8872 2.36544 20.6291 2.29821C20.3711 2.23098 20.0998 2.23376 19.8431 2.30626H19.8291L1.83469 7.76626C1.54178 7.85049 1.28147 8.02196 1.08844 8.25784C0.895411 8.49371 0.778814 8.78279 0.754177 9.08658C0.72954 9.39037 0.798032 9.69446 0.950532 9.95835C1.10303 10.2222 1.3323 10.4334 1.60782 10.5638L9.63469 14.3653L13.4363 22.3922C13.5563 22.6492 13.7473 22.8666 13.9869 23.0186C14.2264 23.1706 14.5044 23.2509 14.7881 23.25C14.8313 23.25 14.8744 23.2481 14.9175 23.2444C15.2202 23.2199 15.5082 23.1034 15.7428 22.9105C15.9774 22.7176 16.1474 22.4576 16.23 22.1653L21.6863 4.17094C21.6863 4.16626 21.6863 4.16157 21.6863 4.15688C21.7597 3.90091 21.7637 3.63 21.6978 3.37199C21.6319 3.11397 21.4985 2.87815 21.3113 2.68876ZM14.7966 21.7359L14.7919 21.7491L11.1019 13.9594L15.5306 9.52969C15.6653 9.3879 15.7393 9.19908 15.7368 9.00351C15.7343 8.80794 15.6555 8.62108 15.5172 8.48278C15.3789 8.34448 15.1921 8.26568 14.9965 8.26318C14.8009 8.26067 14.6121 8.33466 14.4703 8.46938L10.0406 12.8981L2.25001 9.20813H2.26313L20.25 3.75001L14.7966 21.7359Z" fill="#F8FAFC" style="fill:#F8FAFC;fill:color(display-p3 0.9725 0.9804 0.9882);fill-opacity:1;"/>
</svg>
