<svg width="24" height="24" viewBox="0 0 24 24" fill="none" xmlns="http://www.w3.org/2000/svg">
<path d="M21.311 2.68876C21.1224 2.50025 20.8869 2.36544 20.6289 2.29821C20.3708 2.23098 20.0995 2.23376 19.8429 2.30626H19.8288L1.83445 7.76625C1.54153 7.85049 1.28123 8.02196 1.0882 8.25784C0.895167 8.49371 0.77857 8.78278 0.753933 9.08658C0.729296 9.39037 0.797788 9.69445 0.950288 9.95835C1.10279 10.2222 1.33206 10.4334 1.60757 10.5638L9.63445 14.3653L13.436 22.3922C13.556 22.6492 13.7471 22.8666 13.9866 23.0186C14.2262 23.1706 14.5042 23.2509 14.7879 23.25C14.831 23.25 14.8741 23.2481 14.9173 23.2444C15.22 23.2199 15.508 23.1034 15.7426 22.9105C15.9772 22.7176 16.1472 22.4576 16.2298 22.1653L21.686 4.17094C21.686 4.16626 21.686 4.16157 21.686 4.15688C21.7595 3.90091 21.7634 3.63 21.6975 3.37199C21.6316 3.11397 21.4982 2.87815 21.311 2.68876ZM14.7963 21.7359L14.7916 21.7491L11.1016 13.9594L15.5304 9.52969C15.6651 9.3879 15.7391 9.19908 15.7366 9.00351C15.7341 8.80794 15.6553 8.62108 15.517 8.48278C15.3787 8.34448 15.1918 8.26568 14.9963 8.26318C14.8007 8.26067 14.6119 8.33466 14.4701 8.46938L10.0404 12.8981L2.24976 9.20813H2.26289L20.2498 3.75001L14.7963 21.7359Z" fill="white" style="fill:white;fill:white;fill-opacity:1;"/>
</svg>
